<?xml version="1.0" encoding="utf-8"?>
<!-- Generator: Adobe Illustrator 23.0.0, SVG Export Plug-In . SVG Version: 6.00 Build 0)  -->
<svg version="1.1" id="Camada_1" xmlns="http://www.w3.org/2000/svg" xmlns:xlink="http://www.w3.org/1999/xlink" x="0px" y="0px"
	 viewBox="0 0 841.9 177.4" style="enable-background:new 0 0 841.9 177.4;" xml:space="preserve">
<style type="text/css">
	.st0{clip-path:url(#SVGID_4_);}
	.st1{clip-path:url(#SVGID_6_);}
	.st2{clip-path:url(#SVGID_8_);fill:#FFFFFF;}
	.st3{clip-path:url(#SVGID_10_);fill:#FFFFFF;}
	.st4{clip-path:url(#SVGID_12_);fill:#FFFFFF;}
	.st5{clip-path:url(#SVGID_14_);fill:#FFFFFF;}
	.st6{clip-path:url(#SVGID_16_);fill:#FFFFFF;}
	.st7{clip-path:url(#SVGID_18_);fill:#FFFFFF;}
	.st8{clip-path:url(#SVGID_20_);fill:#FFFFFF;}
	.st9{clip-path:url(#SVGID_22_);fill:#FFFFFF;}
	.st10{clip-path:url(#SVGID_24_);fill:#FFFFFF;}
	.st11{clip-path:url(#SVGID_26_);fill:#FFFFFF;}
	.st12{clip-path:url(#SVGID_28_);fill:#FFFFFF;}
	.st13{clip-path:url(#SVGID_30_);fill:#FFFFFF;}
	.st14{clip-path:url(#SVGID_32_);fill:#FFFFFF;}
	.st15{clip-path:url(#SVGID_34_);fill:#FFFFFF;}
	.st16{clip-path:url(#SVGID_36_);fill:#FFFFFF;}
	.st17{clip-path:url(#SVGID_38_);fill:#FFFFFF;}
	.st18{clip-path:url(#SVGID_40_);fill:#FFFFFF;}
	.st19{clip-path:url(#SVGID_42_);fill:#FFFFFF;}
	.st20{clip-path:url(#SVGID_44_);fill:#FFFFFF;}
	.st21{clip-path:url(#SVGID_46_);fill:#FFFFFF;}
	.st22{clip-path:url(#SVGID_48_);fill:#FFFFFF;}
	.st23{clip-path:url(#SVGID_50_);fill:#FFFFFF;}
	.st24{clip-path:url(#SVGID_52_);fill:#FFFFFF;}
	.st25{clip-path:url(#SVGID_54_);fill:#FFFFFF;}
	.st26{clip-path:url(#SVGID_56_);fill:#FFFFFF;}
	.st27{clip-path:url(#SVGID_58_);fill:#FFFFFF;}
	.st28{clip-path:url(#SVGID_60_);fill:#FFFFFF;}
	.st29{clip-path:url(#SVGID_62_);fill:#FFFFFF;}
	.st30{clip-path:url(#SVGID_64_);fill:#FFFFFF;}
	.st31{clip-path:url(#SVGID_66_);fill:#FFFFFF;}
	.st32{clip-path:url(#SVGID_68_);fill:#FFFFFF;}
	.st33{clip-path:url(#SVGID_70_);fill:#FFFFFF;}
	.st34{clip-path:url(#SVGID_72_);fill:#FFFFFF;}
	.st35{clip-path:url(#SVGID_74_);fill:#FFFFFF;}
	.st36{clip-path:url(#SVGID_76_);fill:#FFFFFF;}
	.st37{clip-path:url(#SVGID_78_);fill:#FFFFFF;}
</style>
<g>
	<g>
		<g>
			<g>
				<g>
					<defs>
						<rect id="SVGID_1_" y="-341.9" width="841.9" height="595.3"/>
					</defs>
					<clipPath id="SVGID_2_">
						<use xlink:href="#SVGID_1_"  style="overflow:visible;"/>
					</clipPath>
				</g>
				<g>
					<defs>
						<rect id="SVGID_3_" y="-341.9" width="841.9" height="595.3"/>
					</defs>
					<clipPath id="SVGID_4_">
						<use xlink:href="#SVGID_3_"  style="overflow:visible;"/>
					</clipPath>
					<g class="st0">
						<g>
							<defs>
								<rect id="SVGID_5_" y="-341.9" width="841.9" height="595.3"/>
							</defs>
							<clipPath id="SVGID_6_">
								<use xlink:href="#SVGID_5_"  style="overflow:visible;"/>
							</clipPath>
							<g class="st1">
								<g>
									<defs>
										<rect id="SVGID_7_" y="-341.6" width="841" height="595"/>
									</defs>
									<clipPath id="SVGID_8_">
										<use xlink:href="#SVGID_7_"  style="overflow:visible;"/>
									</clipPath>
									<polygon class="st2" points="306.1,137.2 306,137.4 307,139.9 307.3,139.2 306.4,137.4 									"/>
								</g>
								<g>
									<defs>
										<rect id="SVGID_9_" y="-341.6" width="841" height="595"/>
									</defs>
									<clipPath id="SVGID_10_">
										<use xlink:href="#SVGID_9_"  style="overflow:visible;"/>
									</clipPath>
									<polygon class="st3" points="308.4,134.9 308.5,134.8 308.2,134.2 									"/>
								</g>
								<g>
									<defs>
										<rect id="SVGID_11_" y="-341.6" width="841" height="595"/>
									</defs>
									<clipPath id="SVGID_12_">
										<use xlink:href="#SVGID_11_"  style="overflow:visible;"/>
									</clipPath>
									<path class="st4" d="M382.1,71.8l0.9-3l-0.6-3.4l-4.8-4.7l-3.8-0.7l-1.6,0.6L355.8,75l0.2,0.6l3.9-2.2l-0.4,1.3l0.9,0.3
										l1-0.2l-0.5,1.7l-5.6,5.4l0.7,0.2l5.3-3.2l-2.9,3.3l2.5-1.6L359,83l0.4,0.4l-0.3,0.8l0.2,0.6l0.9-0.5l-2.9,5.4l0.2,0.9
										l-6,10.4l-1.4,1.2l-0.2,1l-1,0.1v1.3l-3.5,3.4l-1.8,0.6l0.2,1l-1,0.3l-4.2,3.2l-1.6,0.3l-0.5-0.1l-0.5-4.4l-0.7-1.1v-0.1
										l0.4-0.5l-0.9-2.8l-0.7-0.3l0.6-0.8l-0.6-0.9v-3.1l1-2.2l-0.4-0.8l0.7-0.7l1.5-5.7l0.2-0.1l0.1,0.5l0.5,0.3l-0.6,4.3
										l1.6-5.7l0.3,0.2h0.1l1.4-4.6l0.4,0.6l5-12.7l-0.4-2.2l0.7-1.2l1.3-6.3l-1.1-1.4l-0.7,0.2l-1.2-1.8h-0.8l-0.6,0.3l-0.3-2.4
										l1.5-4.6l-0.7,0.8l-8,17.3V71l4.3-10.2l-0.4-0.6l-2.8,5.7l0.8-3.8l-2.5,0.8l-2.1,2.2l-0.9,0.5l-0.2-0.1l-0.1-0.7l-3.9,1.4
										l-0.6,0.5h-1.7l-1.5,0.8l-0.6,1.3l-0.3-0.1l-0.3-0.3l-1.4,0.3l-0.4,0.9l-4.3,1.5l-0.5-0.7l-0.4,0.3l-0.2,0.7l-2.7,0.9
										l-0.5,0.9l1.1-0.3l-1.4,0.8L310,74l-15.7,8.2l-1.4-0.6l2.9-10.8l-0.4-1.4l0.1-0.2h0.5l0.1-0.3l-0.3-3.7l-1.1-1.4l-4.3-12.1
										l-0.7-0.6l0.2,1l-0.3,0.4l-0.6-1.4h-0.2l0.1,1.2l-1.9-4.7l-0.5-0.3l1.2,4.7l-1.2-3.2l-0.2-0.1l-0.4,0.5l-1.1,0.2l-0.7-0.2
										l-0.2-1l-1.4-0.9l0.2,3.1l0.9,0.5l0.9,2.1l-0.8,0.1v0.4l0.6,0.4l1,5.8l-0.2,0.1l-1.4-2.3L283,58l0.3-1.1l-0.8,0.1v1.3
										l-0.6-0.7l-0.2,0.3l-0.9,5.9l-3.2,4l-8.1,22.9l-1.7,4.5c-0.3-0.3-0.6-0.5-0.9-0.8l-0.8,2l-12.5-9.6l4.8,7.5L223.9,79
										l0.2-2.3l15.3-5.8l1.3-1.7l9.7-2.2l-9.9,3.8l-0.6,0.8L256,67l-2.2,1h3.1l-2.4,1l0.9,0.1l0,0l2.9-0.4l-1,0.8l0.6,0.1
										l4.5-0.8l0.6-0.4l-1-0.3l1.6-0.4l2.4-3.5l0.7-0.3l0.5-1.7l-0.8-1.2l1.6-2.3l0.1-3.8l0.4-0.9l-1.8-0.7l-0.3-1.7l-2.3-1
										l-1.5-1.3l0.2-0.4l-0.8-2l-6.3-1.4l-0.2-1.5l-2.1,0.1l0.2-1.3l-11.8,2.8l-0.7-0.5l-0.3,0.6l-1.2-0.2l-13.8,5l-0.3,0.6
										l3.5-1l-25.7,10.6l-0.1,1.1l-1.5,0.7l-1.6-0.9l-0.4,1.8l-3,1.4L195,65l-3.5,1.5l-0.2,0.9l-2,1.4l1.8,0.5h0.2l2.6-0.9
										l-0.5,0.5l-1.1,0.4l-1.1,0.1h-0.1H191l-1.6,0.1v0.2l0.2,0.2l-0.1,1.3l-1.2,0.5l-7.3,7.2l-1.7,4.2l1.8,12.3L181,95l-1.4-0.3
										v0.9l1.4-0.5l-0.3,0.5l-0.9,0.8v0.9l2.1-1.8h0.4V96l-0.9,1.4l1.3-0.4l0.8,0.8l-1.7,1.3l1.6-0.4l0.2,1l0.7-0.5l2.9,0.2
										l0.7,0.5l1.4,1.9l-0.5,1l1.2-0.4l1.2,1.5l0.7,0.1l0.6,0.4l0.9-1.6l1.2,1.3l0.9-0.1l0.1,0.6l1,0.3l0.3,1.1l0.7-0.1l2.7,2
										l0.5-0.5l1.8,0.9l-0.3,1.2l1.5-1.9l0.3,0.8v1l0.3,0.3l0.9-0.4l0.8,0.7l-0.6,0.9l1.3-0.8h0.9l0.1-0.9l1.5,0.2l1.3-0.3
										l-1.1-0.7l-0.5-0.6l1.9,0.4l-2.4-1.9l1.2,0.4l2.2,0.1l3.8,1.6l-0.7-1.3l2.8,1.5l0.6-0.3l-0.1-0.5l-5-2.6l2.5,0.3l-0.1,0.4
										l0.7,0.3l0.6-0.3l0.4,0.6l0.6,0.5l2.3,1l0.2,0.2l4.6,0.5V108l2.8,2.7l1.9,3.3l-0.6,1.5l-13.1,5.2l-0.5,0.4l0.1,0.2l1.7-0.3
										l-7.8,3h-1l-1.2,0.8l-3.1,0.7l-0.2-0.5l-2,1.1l0.6-0.7l-5.1,1.7l-0.3,0.3l2-0.2l-19.7,8.1l-1.4,1.7l-5.2,1.9l-0.7,0.6h0.9
										l7-2.2l1.3,0.1l0.9,0.7l1.3,0.2l-0.5,0.8l0.7,0.4l-5.5,2.5l2.8-0.3l-7.1,3.4l4.8-1.1l-1.8,0.9l2.9-0.2l-2.9,1.9l-6.1,1.9
										l-0.6,0.4l0.3,0.1l11.3-3l0.1,0.1v0.2l-8.5,3.3l-0.4,0.4l10.3-2.4l-16.9,6L188,147l-7.8,3.1l11.6-2.4l-22.6,7.5l10.3-2.5
										l-4,1.8l-2.4,2l-5.9,2.2v0.2l1.4-0.1l-2.7,1.6l8.7-2.2l-12.7,4.4h0.9l13.1-3.5h1.3l0.5-0.6l1,0.2l1.4-0.6h0.7l0.5-0.5
										l0.6,0.2l1.3-0.9l0.8-0.2l1.2,0.1l1.5-0.6l0.8-0.7l15.5-4.1l-11.3,4.4l1.1,0.2l63.6-26.4l-3.3,8l7.1-9.5l-1.8,5.7l2.3-1.8
										l0.4-1.7l0.5,1l0.2-0.2v0.6l-0.2-0.4l-0.9,0.7l-0.7,3h-0.5l-3.2,11.6l0.2,0.6l3.6-9l-4.6,13.3l0.2,0.4l0.5-0.7l5.9-15.7
										v0.5l-2.9,10.3v0.5l4.3-9.2l-1.2,3.5l0.1,0.6l6-9.9l-1.7,5.7h0.1l0.8-1.4l-0.7,3.4l5.1-8.7l-0.7-1.4l0.2,0.1l0.5-0.7
										l0.5,0.3l2.3-2.4l8.1-22.3l2.8-1.5l0.2,0.1l-0.3,0.9l1-0.1l0.7,0.5l0.7,0.9l0.3,1.2l0.9,0.5l3.9,5.4l0.8,2.8l4.5,5.6
										l0.1,1.5l2.7,3.6l0.5,0.1l-0.1-0.8l0.4-0.6l-0.2,1.9l0.1,0.4l0.5,0.7h0.3l-0.4-1.2l1.4,1l4.5,7.1l-0.6-1.7l0.1-0.1l0.3,0.2
										l0.8,1.6l-0.3,0.5l0.4,0.6l-0.1,1.9l1.1,1.7l1.2,0.6l1.3,1.4l0.6-2.7l0.1,0.7l0.6,0.7h0.7l0.1,0.5l5.3,7l0.7-1.5l0.5,1.3
										l1.5,2.2l-0.8-2.2l0.5-0.7l0.4,0.9l0.9,0.9l-1.7-3.9l-0.2-2.3l1.8,2.2l0.1-1.7v-0.1l-0.1-1.5l0.9-1.5l-1.6-4.6l0.5-0.2
										l0.6-0.6l0.6-0.2l-13.5-24.5l1.3,0.7l-6.1-10.3l-0.4-2.4l-2-3.6l1.2-0.4l0.3-1l0.7,0.6l18.8-10.4l-7,28.3l0.8,5.8l0.4,0.2
										l-0.3-4.1l2.5,8l4.9,4.7l5.9,1.9l9.4-0.6l5.5-1.8l0.4,1.6l-2,5.9l0.2,0.1l0.7-0.8l-1.9,6.1l1.1-1.8l0.7,0.7l1.4-2.3
										l-0.1,0.9l-2.2,5.3l0.2,0.1l4.3-8.4v0.6l-5,11.4l0.2,0.6l7.4-12.6l-0.4,1.7l0.4,0.2L346,150l2.3-5.1l1.5-1.7L361,120
										l0.2,0.4l1.7-4.4l0.8-1.7l0,0l2.4-6.1l0.1,0.4l-1.4,4.2l0.2,0.6L382.2,75L382.1,71.8z M219.7,120.2l5.1-1.8l0.1,0.2
										L219.7,120.2z"/>
								</g>
								<g>
									<defs>
										<rect id="SVGID_13_" y="-341.6" width="841" height="595"/>
									</defs>
									<clipPath id="SVGID_14_">
										<use xlink:href="#SVGID_13_"  style="overflow:visible;"/>
									</clipPath>
									<polygon class="st5" points="511.4,119.5 512.8,117.6 519.8,97.9 519.2,97.5 531.9,67.9 531.8,67.3 531.4,67.5 531.7,66 
										531.5,65.8 530.9,66.9 530,66.5 530.8,62.7 530.6,62.5 530,63.3 530.2,61.2 529.3,62.6 529,61.6 528.5,61.7 529.8,57.5 
										528.9,59.1 528.4,58.3 524.6,64 526.2,58.8 525.5,60 525,59 521.1,65.3 522,61.5 520.8,63.6 520,63.3 500.2,99 498.4,90.4 
										494.1,83.7 493.8,83.7 497,77.3 498.3,74.4 496.9,75.5 497.1,75 499.5,71.5 499.2,71 501.3,68 500.2,68.7 503.1,65.1 
										504.3,64.3 506.7,60.9 506.8,60.1 507.5,59.1 507.9,58 506.3,59.2 505.9,59.1 506,58.2 503.5,60.8 503.4,61 500.7,64.2 
										500.8,64.5 501.9,64.3 499.7,66.7 498.6,66.2 497.4,66.9 474.3,92.9 473.9,91 477.3,68.5 476,65.9 474.8,65 474.7,64.2 
										472.8,62.4 471.5,64.2 469.8,63.3 466,63.9 463.5,65.6 460.1,71.9 456.7,97.9 457.1,99.4 458.1,99.9 457,102.1 
										456.6,102.4 456.3,102.8 456.6,103.8 455.7,106.6 456.6,108.6 457.3,109.1 457.5,111.4 454.8,112.2 455.6,112.7 
										455.9,113.3 455,113.4 454.5,113.7 454.7,114.4 453.3,115 454.4,112.1 453.8,112 439.3,113.9 439.1,114.3 429.6,114.7 
										428.9,113.5 446.8,67.1 445.2,59 444,57.3 413.6,72.6 414.4,72.7 425.1,67.8 413.3,73.8 413.1,74.4 425.1,69.8 424.9,70.1 
										415.2,74.2 414.9,75.2 415.1,75.6 414.2,76.4 415.7,76.2 426.2,71.2 427.2,71.2 427,71.6 422,74 420.5,75.6 423.8,74.2 
										422.6,75.8 423.8,76 424.9,76 423.5,76.9 423.4,77.5 425.2,76.8 424.9,77.8 426.5,77.4 422.7,89.2 423.2,88.9 416.2,108.9 
										416.1,107.8 416.5,106.7 416.3,106.2 415.8,106.4 415.4,109 414.8,108.8 415.7,110 415.4,110.5 411.4,108.9 409.4,110 
										409.2,109.6 406.5,110.6 406,111.3 405.5,110.9 403.5,112.1 398.4,112.9 398.1,113.1 396.2,113.7 387.7,114 388,113.2 
										388.5,112.6 389.8,109.5 390.5,108.8 410.8,54.3 410.2,52.8 410.1,51 409.4,50 408.7,49.8 404.3,45.8 402.7,45.6 
										397.2,47.3 396.5,48.3 393.4,49.7 393.4,50.4 388.6,53.8 388,53.9 385.1,56.1 385.1,56.7 384.6,58.8 384.8,59.1 
										388.3,56.4 388.7,57.5 389.5,57.2 390.1,58.1 389.1,58.2 387.9,60.9 389.3,61.1 390.6,60.6 390.6,61.9 389,63.5 
										390.4,62.7 391.1,62.6 387.5,69.4 387.7,70.1 384.9,75.3 385.2,75.9 388.5,70.2 383.2,81.3 387.3,75.4 381.8,85.1 
										382.4,85.1 377.4,95.3 383.9,83.2 383.9,82.9 383.5,83 385.3,79.7 385.6,79.4 386,79.8 387,78.5 380.5,91.4 382.1,89.4 
										377.4,98.4 377.2,99.5 384,87.2 375.1,105.5 376,104.5 373.6,111 372.8,111.7 369.5,119.3 368.3,119.6 368.1,120.1 
										368.2,127.1 368.9,128.9 374.4,132.3 374.4,134.5 374.6,134.9 376.7,132.1 385.8,129.2 388.2,129.5 407.7,124.6 
										409.1,124.8 409.6,127.5 411.4,130.2 413.1,131.3 414.1,131.6 416.5,133.1 416.3,135.4 416.6,135.7 416.9,135.5 418,133.6 
										419.4,132.8 423.2,132.7 439.1,128.1 439.4,127.9 439.6,127.2 440,127.6 442.5,126.5 442.9,126 440.2,126.3 440.9,125.8 
										449.9,123.2 450.4,122.9 448.5,122.8 452.7,120 451.8,119.6 452.2,117.5 453.1,117.8 452.3,118.9 454.1,120 455,119 
										455.3,117.4 455.7,119.7 455.3,123.2 455.5,123.8 456.3,122.5 456.8,120 457.2,119.8 456.5,123.9 456.6,124.6 457.2,124.4 
										457.9,125.9 457.6,127.2 457.6,130.1 458.6,131 459.2,128.2 459.6,129.8 460,130.4 460.7,128.9 466,131.2 464.8,134.6 
										465.3,135.5 465.3,137.7 466.4,137.3 468.5,132.5 468.1,132.1 468.8,132 468.7,131.5 477.6,120.5 477.6,120.4 485.5,108.1 
										486,106 496.3,147.6 496.7,148 494.6,136 496,139.7 495.1,132.8 498.3,145.2 497.8,138.9 499.4,146.2 499.3,133.5 
										500.9,149 500.5,134.7 501.3,136.1 502,142.3 502.3,138.2 502.5,138 502.7,138.8 502.8,138.8 503,136.7 503.1,136.7 
										503.7,142 503.8,142 503.9,138.2 504.3,139.1 504.6,138.8 511.4,120.7 									"/>
								</g>
								<g>
									<defs>
										<rect id="SVGID_15_" y="-341.6" width="841" height="595"/>
									</defs>
									<clipPath id="SVGID_16_">
										<use xlink:href="#SVGID_15_"  style="overflow:visible;"/>
									</clipPath>
									<polygon class="st6" points="667.7,127 668.7,126.1 671.7,124.9 673.2,123.5 671.3,123 667.6,123.2 667.3,122.7 
										665.8,122.7 665.4,122.3 667.2,121.4 666.5,120.8 666.7,119.9 669,119.5 671.8,117.9 670.8,117.1 671.7,116.6 672.6,115.9 
										672.7,113.6 663.3,116.3 662.8,116.6 662.2,116 661.1,115.9 660.1,115.6 659.8,115.8 637.9,119.3 637.7,119.2 638.5,118.5 
										634.7,118.5 650.9,77.9 650.9,74.8 651.9,71.1 650.3,62.9 649.2,61.2 618.7,76.4 619.5,76.5 630.1,71.6 618.4,77.6 
										618.2,78.2 630.2,73.6 630,73.9 620.2,78 620,79 620.2,79.4 619.3,80.2 620.8,80.1 631.3,75 632.3,75.1 631.8,75.6 
										627.1,77.9 625.6,79.4 628.9,78.1 627.7,79.6 628.9,79.9 630,79.8 628.6,80.8 628.5,81.4 630.3,80.5 630,81.6 631.2,81.3 
										627.8,93 628.3,92.7 621.3,112.7 621.2,111.7 621.6,110.5 621.3,110 620.9,110.2 620.5,112.8 619.9,112.7 620.8,113.8 
										620.6,114.3 619.9,114 619.4,113.6 616.4,112.8 614.5,113.8 614.2,113.4 611.6,114.4 611,115.2 610.6,114.7 609.5,115.3 
										607.7,115.7 606.7,116.3 603.8,116.5 603.5,116.7 602.4,116.9 601.5,117.5 595.5,117.5 595.3,117.4 595,116.4 594.3,117.7 
										593.1,116.9 594.8,114.3 594.9,113.4 615.9,58.2 615.1,56.1 615.2,54.9 614.4,53.8 613.9,53.6 613.2,52.6 609.5,49.7 
										607.8,49.3 605.9,49.7 604.9,50.3 602.3,51.1 601.5,52.1 598.4,53.7 598.5,54.2 596.3,55.5 595.1,56.9 593.1,57.9 
										591.8,59.1 590.1,59.9 590.3,60.5 589.8,62.2 589.7,63 593.5,60.2 593.9,61.3 594.6,61 595.2,61.9 594.6,62 594.2,62 
										592.9,64.8 593.6,64.7 594.3,64.9 595,64.8 595.6,64.4 595.7,65.7 594.3,66.9 594.1,67.4 596.1,66.2 596.1,66.7 
										592.6,73.2 592.8,73.9 589.9,79.2 590.3,79.7 593.6,74 588.3,85.1 592.3,79.3 586.9,89 587.5,88.9 582.5,99.1 589,87.1 
										589,86.7 588.6,86.8 590.4,83.5 590.7,83.3 591.1,83.6 592,82.3 585.4,95.5 587,93.5 582.4,102.3 582.2,103.4 589.2,91.1 
										580.2,108.2 580.2,109.4 581,108.3 579.7,111.1 575.4,111.2 575,110.7 574.2,110.3 576,109.6 576.9,108.1 575.3,107.6 
										572.9,107.9 572.8,108 571.6,108.4 567.7,108.4 567.6,108.3 568.5,107.7 566.7,107.7 565.8,108.8 564.8,107.9 565.8,107.5 
										565.5,107.3 520.4,114.8 518.2,117 515.8,124 516.4,125.5 513.6,132.9 513.7,133.4 515.6,130.2 516.3,130.5 509.8,142.4 
										509.9,143 519,127.7 512,141.1 512.5,140.8 517.4,132.1 515.9,135.5 517.1,134.4 520.7,127.6 517.6,135 521.3,129.3 
										520.5,131.8 526.2,126.2 526.8,126.7 528.6,126.3 528.6,125.7 531,125.3 530.2,125.6 529.7,126.3 555.3,122.7 557.8,123 
										564.5,122.1 565.1,122.5 565.9,121.9 566.8,122.3 567.8,121.7 568.9,121.5 569.7,121.7 574.9,120.4 575.6,120.4 
										574.6,123.1 573.3,123.4 572.7,125.7 573,130.3 574.5,133.2 579.5,136.1 578.1,137.1 578,137.7 578.9,138.7 579.9,138.6 
										581.2,136.5 582.5,135.8 584.2,135.9 591,133 593,133.4 602.8,131.2 603.5,131.4 604.4,130.6 613.3,128.4 614.1,128.5 
										614.7,131.3 616.7,134.7 623.7,136.8 625,135.7 646.2,131.2 624.7,137.1 651.8,130.9 641.6,133.7 650.6,132.4 642.2,134.8 
										655.8,132.3 640.5,136 668.5,130.8 668.9,130.1 669.8,130.2 677.2,126.2 677.9,125.2 									"/>
								</g>
								<g>
									<defs>
										<rect id="SVGID_17_" y="-341.6" width="841" height="595"/>
									</defs>
									<clipPath id="SVGID_18_">
										<use xlink:href="#SVGID_17_"  style="overflow:visible;"/>
									</clipPath>
									<polygon class="st7" points="531.9,77.3 530.3,82.4 530.4,82.9 546.5,79 546.8,79.5 550.6,79.1 550.6,79.2 548.9,79.7 
										549.6,79.8 565.3,76.7 554.3,79.6 553.7,80.1 568.5,77.5 566.5,78.5 565.7,79.5 575.6,78.9 570.3,80.4 578.7,79.1 
										576.5,80 582.5,79.5 589.1,75.6 587.6,73.9 587.1,73.6 586.1,73.4 584,73.5 584,72.9 583.6,72.6 585.5,71 584.4,71 
										582.9,69.9 583.8,68.6 582.4,68.9 581.3,68.8 584.3,66.5 583.8,65.7 587.6,64.1 576.7,64 579.5,63.1 580,62.8 578.4,62.3 
										542.1,64.7 536.3,70.1 539.6,68 534,73.6 533.8,74.2 537.5,71.5 									"/>
								</g>
								<g>
									<defs>
										<rect id="SVGID_19_" y="-341.6" width="841" height="595"/>
									</defs>
									<clipPath id="SVGID_20_">
										<use xlink:href="#SVGID_19_"  style="overflow:visible;"/>
									</clipPath>
									<polygon class="st8" points="575.3,88.6 573.8,88.2 572.1,88.4 572.2,87.8 566,87.8 564.9,86.8 564.3,87.5 563.9,87.3 
										563.1,87.2 562.9,88 561.5,87.5 531.1,92.5 529,93.9 526.5,98 526.6,103.6 526,104.8 557.9,99.7 543.5,102.8 554.2,102 
										553.1,103 566.2,101.8 566.8,102.1 567,102.5 567.3,102.4 569.2,100.7 569.6,99.9 569.5,99.7 568.6,99.4 569.9,97.4 
										568.2,97.9 567.8,97.7 567.3,97.7 567.4,97.4 569.4,97 569.9,97 570.2,96.7 571.5,96.4 570.8,94.9 573.8,92.6 573.8,91.4 
										572.4,90.6 575.3,89.6 									"/>
								</g>
								<g>
									<defs>
										<rect id="SVGID_21_" y="-341.6" width="841" height="595"/>
									</defs>
									<clipPath id="SVGID_22_">
										<use xlink:href="#SVGID_21_"  style="overflow:visible;"/>
									</clipPath>
									<polygon class="st9" points="558.1,107.2 558.2,107.4 569.1,106.7 571.9,105.7 568.5,105.1 									"/>
								</g>
								<g>
									<defs>
										<rect id="SVGID_23_" y="-341.6" width="841" height="595"/>
									</defs>
									<clipPath id="SVGID_24_">
										<use xlink:href="#SVGID_23_"  style="overflow:visible;"/>
									</clipPath>
									<polygon class="st10" points="573.5,145.4 572.9,145.2 572.6,146.7 572.8,146.9 573.4,146.1 574.2,147.5 575.1,147.3 
										576.1,146.7 575.5,144.7 									"/>
								</g>
								<g>
									<defs>
										<rect id="SVGID_25_" y="-341.6" width="841" height="595"/>
									</defs>
									<clipPath id="SVGID_26_">
										<use xlink:href="#SVGID_25_"  style="overflow:visible;"/>
									</clipPath>
									<polygon class="st11" points="534.9,128.5 535.6,128.7 547.3,127.1 547.7,126.8 547.6,126.5 									"/>
								</g>
								<g>
									<defs>
										<rect id="SVGID_27_" y="-341.6" width="841" height="595"/>
									</defs>
									<clipPath id="SVGID_28_">
										<use xlink:href="#SVGID_27_"  style="overflow:visible;"/>
									</clipPath>
									<polygon class="st12" points="501.9,150.9 502,151.4 502.4,148.7 501.5,143.2 									"/>
								</g>
								<g>
									<defs>
										<rect id="SVGID_29_" y="-341.6" width="841" height="595"/>
									</defs>
									<clipPath id="SVGID_30_">
										<use xlink:href="#SVGID_29_"  style="overflow:visible;"/>
									</clipPath>
									<polygon class="st13" points="539.1,105.8 540.4,106.2 542.8,105.6 541.9,105 538.4,105.8 									"/>
								</g>
								<g>
									<defs>
										<rect id="SVGID_31_" y="-341.6" width="841" height="595"/>
									</defs>
									<clipPath id="SVGID_32_">
										<use xlink:href="#SVGID_31_"  style="overflow:visible;"/>
									</clipPath>
									<polygon class="st14" points="499,74 501.8,69.9 498.3,74.3 									"/>
								</g>
								<g>
									<defs>
										<rect id="SVGID_33_" y="-341.6" width="841" height="595"/>
									</defs>
									<clipPath id="SVGID_34_">
										<use xlink:href="#SVGID_33_"  style="overflow:visible;"/>
									</clipPath>
									<polygon class="st15" points="603.8,116.4 603.8,116.5 603.8,116.5 									"/>
								</g>
								<g>
									<defs>
										<rect id="SVGID_35_" y="-341.6" width="841" height="595"/>
									</defs>
									<clipPath id="SVGID_36_">
										<use xlink:href="#SVGID_35_"  style="overflow:visible;"/>
									</clipPath>
									<polygon class="st16" points="603.4,114.3 603.1,115.6 603.8,116.4 604,115.1 									"/>
								</g>
								<g>
									<defs>
										<rect id="SVGID_37_" y="-341.6" width="841" height="595"/>
									</defs>
									<clipPath id="SVGID_38_">
										<use xlink:href="#SVGID_37_"  style="overflow:visible;"/>
									</clipPath>
									<polygon class="st17" points="352.5,94.6 351.1,97.8 352.5,95.3 									"/>
								</g>
								<g>
									<defs>
										<rect id="SVGID_39_" y="-341.6" width="841" height="595"/>
									</defs>
									<clipPath id="SVGID_40_">
										<use xlink:href="#SVGID_39_"  style="overflow:visible;"/>
									</clipPath>
									<polygon class="st18" points="360.6,122.6 361.5,120.2 360.4,121.9 									"/>
								</g>
								<g>
									<defs>
										<rect id="SVGID_41_" y="-341.6" width="841" height="595"/>
									</defs>
									<clipPath id="SVGID_42_">
										<use xlink:href="#SVGID_41_"  style="overflow:visible;"/>
									</clipPath>
									<polygon class="st19" points="455.1,109 456.7,109.5 456.7,108.7 456.6,108.6 455.5,108.6 									"/>
								</g>
								<g>
									<defs>
										<rect id="SVGID_43_" y="-341.6" width="841" height="595"/>
									</defs>
									<clipPath id="SVGID_44_">
										<use xlink:href="#SVGID_43_"  style="overflow:visible;"/>
									</clipPath>
									<polygon class="st20" points="570.6,151.3 570.9,149.3 570.3,151.1 									"/>
								</g>
								<g>
									<defs>
										<rect id="SVGID_45_" y="-341.6" width="841" height="595"/>
									</defs>
									<clipPath id="SVGID_46_">
										<use xlink:href="#SVGID_45_"  style="overflow:visible;"/>
									</clipPath>
									<polygon class="st21" points="202,154.5 202.3,154.7 219.5,147.4 219.1,147.4 									"/>
								</g>
								<g>
									<defs>
										<rect id="SVGID_47_" y="-341.6" width="841" height="595"/>
									</defs>
									<clipPath id="SVGID_48_">
										<use xlink:href="#SVGID_47_"  style="overflow:visible;"/>
									</clipPath>
									<polygon class="st22" points="211.1,114.8 211.9,114.6 213.3,113.4 212.6,112.7 208.6,115.3 209.8,115.4 									"/>
								</g>
								<g>
									<defs>
										<rect id="SVGID_49_" y="-341.6" width="841" height="595"/>
									</defs>
									<clipPath id="SVGID_50_">
										<use xlink:href="#SVGID_49_"  style="overflow:visible;"/>
									</clipPath>
									<polygon class="st23" points="162.8,153.6 162.9,153.7 163.3,153.7 171.4,150.6 171.4,150.5 171.4,150.3 163,153.3 
																			"/>
								</g>
								<g>
									<defs>
										<rect id="SVGID_51_" y="-341.6" width="841" height="595"/>
									</defs>
									<clipPath id="SVGID_52_">
										<use xlink:href="#SVGID_51_"  style="overflow:visible;"/>
									</clipPath>
									<polygon class="st24" points="183.1,102.8 184.8,103.5 185.4,101.7 184,102.7 184.2,100.6 									"/>
								</g>
								<g>
									<defs>
										<rect id="SVGID_53_" y="-341.6" width="841" height="595"/>
									</defs>
									<clipPath id="SVGID_54_">
										<use xlink:href="#SVGID_53_"  style="overflow:visible;"/>
									</clipPath>
									<polygon class="st25" points="176.1,96.3 176.4,96 177.8,92.6 177.6,91.9 175.5,93.2 174.3,95.4 175.3,96.3 									"/>
								</g>
								<g>
									<defs>
										<rect id="SVGID_55_" y="-341.6" width="841" height="595"/>
									</defs>
									<clipPath id="SVGID_56_">
										<use xlink:href="#SVGID_55_"  style="overflow:visible;"/>
									</clipPath>
									<polygon class="st26" points="188.6,68.3 186.7,68.3 186.4,68.7 186.1,69.4 186.6,69.8 									"/>
								</g>
								<g>
									<defs>
										<rect id="SVGID_57_" y="-341.6" width="841" height="595"/>
									</defs>
									<clipPath id="SVGID_58_">
										<use xlink:href="#SVGID_57_"  style="overflow:visible;"/>
									</clipPath>
									<polygon class="st27" points="198.9,108.8 199.6,108.7 195.1,106.6 196.1,107.8 									"/>
								</g>
								<g>
									<defs>
										<rect id="SVGID_59_" y="-341.6" width="841" height="595"/>
									</defs>
									<clipPath id="SVGID_60_">
										<use xlink:href="#SVGID_59_"  style="overflow:visible;"/>
									</clipPath>
									<polygon class="st28" points="194.7,104.4 194.7,104.4 193.6,103 192.7,104.6 192.6,104.6 192.7,104.6 193.6,105.5 
										195.9,106.2 195.1,105.2 									"/>
								</g>
								<g>
									<defs>
										<rect id="SVGID_61_" y="-341.6" width="841" height="595"/>
									</defs>
									<clipPath id="SVGID_62_">
										<use xlink:href="#SVGID_61_"  style="overflow:visible;"/>
									</clipPath>
									<polygon class="st29" points="175.7,86.4 176.6,87.3 177.5,86.6 176.6,85.6 									"/>
								</g>
								<g>
									<defs>
										<rect id="SVGID_63_" y="-341.6" width="841" height="595"/>
									</defs>
									<clipPath id="SVGID_64_">
										<use xlink:href="#SVGID_63_"  style="overflow:visible;"/>
									</clipPath>
									<polygon class="st30" points="176.9,77.8 176.1,76.9 175.2,77.7 175.9,78.6 									"/>
								</g>
								<g>
									<defs>
										<rect id="SVGID_65_" y="-341.6" width="841" height="595"/>
									</defs>
									<clipPath id="SVGID_66_">
										<use xlink:href="#SVGID_65_"  style="overflow:visible;"/>
									</clipPath>
									<polygon class="st31" points="194.5,107.5 194.5,107.1 192.3,108.6 									"/>
								</g>
								<g>
									<defs>
										<rect id="SVGID_67_" y="-341.6" width="841" height="595"/>
									</defs>
									<clipPath id="SVGID_68_">
										<use xlink:href="#SVGID_67_"  style="overflow:visible;"/>
									</clipPath>
									<polygon class="st32" points="189.6,105.5 189.3,106.6 190.9,105.8 190.6,105.1 									"/>
								</g>
								<g>
									<defs>
										<rect id="SVGID_69_" y="-341.6" width="841" height="595"/>
									</defs>
									<clipPath id="SVGID_70_">
										<use xlink:href="#SVGID_69_"  style="overflow:visible;"/>
									</clipPath>
									<polygon class="st33" points="176.9,95.1 177,96 177.7,96.4 178.2,95.8 177.9,95.1 177.1,94.9 									"/>
								</g>
								<g>
									<defs>
										<rect id="SVGID_71_" y="-341.6" width="841" height="595"/>
									</defs>
									<clipPath id="SVGID_72_">
										<use xlink:href="#SVGID_71_"  style="overflow:visible;"/>
									</clipPath>
									<polygon class="st34" points="201.9,113.8 199.7,115.2 201.3,114.7 202,114.1 									"/>
								</g>
								<g>
									<defs>
										<rect id="SVGID_73_" y="-341.6" width="841" height="595"/>
									</defs>
									<clipPath id="SVGID_74_">
										<use xlink:href="#SVGID_73_"  style="overflow:visible;"/>
									</clipPath>
									<polygon class="st35" points="166.7,98 164,95 162.4,96.9 164.1,100 									"/>
								</g>
								<g>
									<defs>
										<rect id="SVGID_75_" y="-341.6" width="841" height="595"/>
									</defs>
									<clipPath id="SVGID_76_">
										<use xlink:href="#SVGID_75_"  style="overflow:visible;"/>
									</clipPath>
									<polygon class="st36" points="177.3,80.5 177.9,79.9 177.2,79.3 176.6,79.9 									"/>
								</g>
								<g>
									<defs>
										<rect id="SVGID_77_" y="-341.6" width="841" height="595"/>
									</defs>
									<clipPath id="SVGID_78_">
										<use xlink:href="#SVGID_77_"  style="overflow:visible;"/>
									</clipPath>
									<polygon class="st37" points="179.2,106 179.3,105.4 177.9,106.8 									"/>
								</g>
							</g>
						</g>
					</g>
				</g>
			</g>
		</g>
	</g>
</g>
</svg>
