<?xml version="1.0" encoding="utf-8"?>
<!-- Generator: Adobe Illustrator 23.0.0, SVG Export Plug-In . SVG Version: 6.00 Build 0)  -->
<svg version="1.1" id="Layer_1" xmlns="http://www.w3.org/2000/svg" xmlns:xlink="http://www.w3.org/1999/xlink" x="0px" y="0px"
	 viewBox="0 0 300 300" style="enable-background:new 0 0 300 300;" xml:space="preserve">

<g id="Group">
	<g id="Shape">
		<path class="st0" d="M257.3,261h1.6l0,0c0.6,0,1.5,0.5,1.6,1.3v3.6c0,0.2,0,1.1-1.5,1.2h-2c-14.7,0-14.2-14.2-14.2-14.2v-25.4
			c0-0.8,0.6-1.5,1.5-1.5h3.3c0.8,0,1.5,0.6,1.5,1.5v5.4h11.3c0.8,0,1.3,0.9,1.3,1.3v3.6c0,0.6-0.6,1.3-1.3,1.3H249v13.6
			C249,252.7,248.6,261.1,257.3,261"/>
		<path class="st0" d="M223.9,265.6c0,0.8-0.6,1.5-1.5,1.5h-3.3c-0.8,0-1.3-0.6-1.3-1.5V247c0,0-0.5-14.3,14.2-14.2h6.3
			c1.5,0.1,1.5,0.9,1.5,1.2v3.6c0,0.9-0.9,1.3-1.6,1.3l0,0h-6c-8.7,0-8.3,8.3-8.3,8.3L223.9,265.6L223.9,265.6L223.9,265.6z"/>
		<path class="st0" d="M146.1,261.5h1.6l0,0c0.6,0,1.5,0.5,1.6,1.3v3.6c0,0.2,0,1.1-1.5,1.2h-2c-14.7,0-14.2-14.2-14.2-14.2v-25.4
			c0-0.8,0.6-1.5,1.5-1.5h3.3c0.8,0,1.5,0.6,1.5,1.5v5.4h11.3c0.8,0,1.3,0.9,1.3,1.3v3.6c0,0.6-0.6,1.3-1.3,1.3h-11.3v13.6
			C137.7,253.2,137.4,261.5,146.1,261.5"/>
		<path class="st0" d="M77.9,239.1h10.8c2,0.2,2.7,1.2,2.7,3.6v2.4c-0.1,1.7-0.2,3.6-3.6,3.6H74.7v-5.9
			C74.9,239.3,76.6,239.1,77.9,239.1 M94,261H78.6c-3.4,0-3.8-1.5-3.8-5.9v-0.1h13.2c6,0,9.5-3.6,9.6-10.2v-2c0-6.1-3.8-9.9-9.9-9.9
			h-6.5h-2.8c-6.4,0-9.6,3.3-9.9,10.3v11.9c0,6,1.2,12.1,9.9,12.1h15.4c1.1,0,1.7-0.5,1.7-1.6v-3.2C95.7,261.8,95.5,261,94,261"/>
		<path class="st0" d="M204.9,261l-4.4,0.1H195c-2.8,0-3.8-0.9-3.8-3.6v-14.7c0-3.4,1.7-3.4,3.1-3.6h9.8c3.4,0,3.8,1.5,3.8,5.9v12.3
			C208,260.7,206.4,260.8,204.9,261L204.9,261z M214.3,245c0-6-1.2-12.1-9.9-12.1H195c-6.4,0-9.6,3.3-9.9,10.3v14.2
			c0,6.1,3.8,9.9,9.9,9.9h5.5l0,0h3.9c6.4,0,9.6-3.3,9.9-10.3L214.3,245L214.3,245z"/>
		<path class="st0" d="M56.5,260.8h-4.4l0,0h-5.6c-2.8,0-3.8-0.9-3.8-3.8v-18.5h13.1c3.4,0,3.8,1.5,3.8,6v12.5
			C59.4,260.7,57.8,260.7,56.5,260.8L56.5,260.8z M65.8,244.7c0-6-1.2-12.3-10-12.3H42.6v-5.4c0-0.8-0.6-1.5-1.5-1.5h-3.3
			c-0.8,0-1.5,0.6-1.5,1.5v30.1c0,6.1,3.8,9.9,10,9.9h6.5h2.9c6.4,0,9.6-3.3,9.9-10.3v-4.4l0,0L65.8,244.7L65.8,244.7z"/>
		<path class="st0" d="M119,261h-10.7c-2.1-0.1-2.9-1.2-2.9-3.6v-2.4c0.1-1.7,0.2-3.6,3.6-3.6h13.1v5.9
			C122.1,260.7,120.3,260.8,119,261L119,261z M128.3,250.4V245c0-6-1.2-12.1-9.9-12.1h-15.4c-1.1,0-1.7,0.5-1.7,1.6v3.2
			c0,0.5,0.2,1.3,1.7,1.5h15.4c3.4,0,3.8,1.5,3.8,5.9v0.1h-13.2c-6,0-9.5,3.6-9.6,10.2v2c0,6.1,3.8,9.9,9.9,9.9h5.5l0,0h3.9
			c6.4,0,9.6-3.3,9.9-10.3L128.3,250.4L128.3,250.4z"/>
		<path class="st0" d="M174.8,260.2c-0.5,0.5-1.5,0.8-2.9,0.8h-13v-18.2c0-2.7,0.9-3.8,3.8-3.8H173c0.8,0.1,1.5,0.4,1.9,0.8
			c0.8,0.8,0.8,2.4,0.8,4.2v12.1C175.6,257.8,175.6,259.3,174.8,260.2L174.8,260.2z M181.8,244.9c0-6.3-1.2-12-9.9-12h-9.2
			c-6.3,0-9.9,3.8-9.9,9.9v29.6c0,0.9,0.4,1.5,1.2,1.5h3.6c0.8,0,1.5-0.6,1.5-1.5v-5.3h13c8.7,0,9.9-5.8,9.9-12v-2.7L181.8,244.9z"
			/>
		<g>
			<path class="st0" d="M245.1,120c0-52.3-42.1-94.4-94.4-94.4c-52.3,0-94.4,42.1-94.4,94.4c0,24.2,9.1,47,25.8,64.5l0,0
				c2,2,5.8,2.5,8.3,0l10.1-9.5c2-2,2.5-5.8,0.5-8.3l0,0c-12.2-12.6-18.4-29.5-18.4-47c0-38.1,30.6-68.7,68.7-68.7
				s68.7,30.6,68.7,68.7c0,17.5-6.9,34.3-18.4,47l0,0c-2,2-2,5.8,0.5,8.3l10.1,9.5c2,2,5.8,2,8.3,0l0,0
				C235.6,167,245.1,144.2,245.1,120"/>
			<path class="st0" d="M280.6,119.6c0-12.6-2-25.3-5.8-38.1l0,0l0,0l0,0l0,0c-0.9-3.3-4.4-4.8-7.3-3.7L254.3,82
				c-3.3,0.9-4.8,4.4-3.7,7.3l0,0c3.3,9.5,4.8,20,4.8,30.1c0,18-4.8,35.9-14.2,51.8l0,0c-1.6,2.5-0.5,6.2,2,7.8l12.2,7.3
				c2.5,1.6,6.2,0.5,7.8-2l0,0C274.8,164.8,280.6,142.1,280.6,119.6"/>
			<path class="st0" d="M60.3,171.4c-9.5-15.5-14.2-33.4-14.2-51.8c0-10.1,1.6-20.8,4.8-30.1l0,0l0,0l0,0c0.5-3.3-0.9-6.2-4.4-7.3
				l-13.1-4.4c-3.3-0.9-6.2,0.5-7.3,3.7l0,0c-3.7,12.6-5.8,25.3-5.8,38.1c0,22.8,6.2,45.4,17.9,64.9l0,0c1.6,2.5,5.3,3.7,7.8,2
				l12.2-7.3C60.8,177.6,61.9,173.9,60.3,171.4L60.3,171.4z"/>
		</g>
	</g>
</g>
</svg>
