<?xml version="1.0" encoding="utf-8"?>
<!-- Generator: Adobe Illustrator 23.0.0, SVG Export Plug-In . SVG Version: 6.00 Build 0)  -->
<svg version="1.1" id="DEEZER_LOGO" xmlns="http://www.w3.org/2000/svg" xmlns:xlink="http://www.w3.org/1999/xlink" x="0px"
	 y="0px" viewBox="0 0 203.3 109.8" style="enable-background:new 0 0 203.3 109.8;" xml:space="preserve">
<style type="text/css">
	.st0{fill:#2BADBB;}
	.st1{fill:#F22991;}
	.st2{fill:#81C41B;}
	.st3{fill:#DFF007;}
	.st4{fill:#FC1622;}
	.st5{filter:url(#Adobe_OpacityMaskFilter);}
	.st6{fill:url(#SVGID_1_);}
	.st7{opacity:0.85;mask:url(#highlights_1_);fill:#FFFFFF;}
</style>
<g id="_x3C_Grupo_x3E___x2F__COLOUR_SQUARES">
	<path id="cyan" class="st0" d="M166.1,109.8h37.2V97.7h-37.2V109.8z M166.1,95.8h37.2V83.8h-37.2V95.8z M166.1,81.9h37.2V69.8
		h-37.2V81.9z M166.1,67.9h37.2V55.8h-37.2V67.9z M166.1,54h37.2V41.9h-37.2V54z M166.1,40h37.2V27.9h-37.2V40z M166.1,26h37.2V14
		h-37.2V26z M166.1,0v12.1h37.2V0H166.1z"/>
	<path id="magenta" class="st1" d="M83.1,109.8h37.2V97.7H83.1V109.8z M83.1,95.8h37.2V83.8H83.1V95.8z M83.1,81.9h37.2V69.8H83.1
		V81.9z M83.1,67.9h37.2V55.8H83.1V67.9z M83.1,54h37.2V41.9H83.1V54z M83.1,40h37.2V27.9H83.1V40z M83.1,26h37.2V14H83.1V26z"/>
	<path id="green" class="st2" d="M124.6,109.8h37.2V97.7h-37.2V109.8z M124.6,95.8h37.2V83.8h-37.2V95.8z M124.6,81.9h37.2V69.8
		h-37.2V81.9z M124.6,67.9h37.2V55.8h-37.2V67.9z M124.6,54h37.2V41.9h-37.2V54z"/>
	<path id="yellow" class="st3" d="M41.5,109.8h37.2V97.7H41.5V109.8z M41.5,95.8h37.2V83.8H41.5V95.8z M41.5,81.9h37.2V69.8H41.5
		V81.9z"/>
	<path id="red" class="st4" d="M0,109.8h37.2V97.7H0V109.8z M0,95.8h37.2V83.8H0V95.8z M0,81.9h37.2V69.8H0V81.9z M0,67.9h37.2V55.8
		H0V67.9z M0,54h37.2V41.9H0V54z"/>
	<defs>
		<filter id="Adobe_OpacityMaskFilter" filterUnits="userSpaceOnUse" x="0" y="0" width="203.3" height="77.7">
			<feFlood  style="flood-color:white;flood-opacity:1" result="back"/>
			<feBlend  in="SourceGraphic" in2="back" mode="normal"/>
		</filter>
	</defs>
	<mask maskUnits="userSpaceOnUse" x="0" y="0" width="203.3" height="77.7" id="highlights_1_">
		<g class="st5">
			<linearGradient id="SVGID_1_" gradientUnits="userSpaceOnUse" x1="101.6448" y1="0" x2="101.6448" y2="77.6743">
				<stop  offset="0" style="stop-color:#FFFFFF"/>
				<stop  offset="0.1433" style="stop-color:#FAFAFA"/>
				<stop  offset="0.3079" style="stop-color:#ECECEC"/>
				<stop  offset="0.483" style="stop-color:#D5D5D5"/>
				<stop  offset="0.6656" style="stop-color:#B5B5B5"/>
				<stop  offset="0.8519" style="stop-color:#8C8C8C"/>
				<stop  offset="1" style="stop-color:#666666"/>
			</linearGradient>
			<path class="st6" d="M83.1,77.4c4.5,0.2,9,0.3,13.6,0.3c8,0,15.9-0.3,23.5-0.9v-7H83.1V77.4z M0,60.6c6.7,2.7,13.8,5.2,21.5,7.3
				h15.7V55.8H0V60.6z M37.2,71.7v-2h-8.6C31.4,70.5,34.2,71.1,37.2,71.7z M41.5,72.6c11.7,2.2,24.2,3.8,37.2,4.5v-7.4H41.5V72.6z
				 M0,54h37.2V41.9H0V54z M83.1,26h37.2V14H83.1V26z M83.1,67.9h37.2V55.8H83.1V67.9z M83.1,40h37.2V27.9H83.1V40z M83.1,54h37.2
				V41.9H83.1V54z M124.6,67.9h37.2V55.8h-37.2V67.9z M166.1,54h37.2V41.9h-37.2V54z M166.1,40h37.2V27.9h-37.2V40z M166.1,0v12.1
				h37.2V0H166.1z M166.1,26h37.2V14h-37.2V26z M124.6,54h37.2V41.9h-37.2V54z M124.6,76.4c13.1-1.2,25.5-3.2,37.2-5.9v-0.7h-37.2
				V76.4z M166.1,67.9h5.8c11.5-3.2,22-7.2,31.3-11.7v-0.4h-37.2V67.9z"/>
		</g>
	</mask>
	<path id="highlights" class="st7" d="M83.1,77.4c4.5,0.2,9,0.3,13.6,0.3c8,0,15.9-0.3,23.5-0.9v-7H83.1V77.4z M0,60.6
		c6.7,2.7,13.8,5.2,21.5,7.3h15.7V55.8H0V60.6z M37.2,71.7v-2h-8.6C31.4,70.5,34.2,71.1,37.2,71.7z M41.5,72.6
		c11.7,2.2,24.2,3.8,37.2,4.5v-7.4H41.5V72.6z M0,54h37.2V41.9H0V54z M83.1,26h37.2V14H83.1V26z M83.1,67.9h37.2V55.8H83.1V67.9z
		 M83.1,40h37.2V27.9H83.1V40z M83.1,54h37.2V41.9H83.1V54z M124.6,67.9h37.2V55.8h-37.2V67.9z M166.1,54h37.2V41.9h-37.2V54z
		 M166.1,40h37.2V27.9h-37.2V40z M166.1,0v12.1h37.2V0H166.1z M166.1,26h37.2V14h-37.2V26z M124.6,54h37.2V41.9h-37.2V54z
		 M124.6,76.4c13.1-1.2,25.5-3.2,37.2-5.9v-0.7h-37.2V76.4z M166.1,67.9h5.8c11.5-3.2,22-7.2,31.3-11.7v-0.4h-37.2V67.9z"/>
</g>
</svg>
