<?xml version="1.0" encoding="utf-8"?>
<!-- Generator: Adobe Illustrator 23.0.0, SVG Export Plug-In . SVG Version: 6.00 Build 0)  -->
<svg version="1.1"
	 id="svg2" inkscape:version="0.48.2 r9819" sodipodi:docname="iTunes Store.svg" xmlns:cc="http://creativecommons.org/ns#" xmlns:dc="http://purl.org/dc/elements/1.1/" xmlns:inkscape="http://www.inkscape.org/namespaces/inkscape" xmlns:rdf="http://www.w3.org/1999/02/22-rdf-syntax-ns#" xmlns:sodipodi="http://sodipodi.sourceforge.net/DTD/sodipodi-0.dtd" xmlns:svg="http://www.w3.org/2000/svg"
	 xmlns="http://www.w3.org/2000/svg" xmlns:xlink="http://www.w3.org/1999/xlink" x="0px" y="0px" viewBox="137 107 322 322"
	 enable-background="new 137 107 322 322" xml:space="preserve">
<defs>
	
	<inkscape:path-effect  effect="spiro" id="path-effect3009" is_visible="true"></inkscape:path-effect>
</defs>
<sodipodi:namedview  bordercolor="#666666" borderopacity="1.0" id="base" inkscape:current-layer="layer1" inkscape:cx="319.18373" inkscape:cy="203.94164" inkscape:document-units="px" inkscape:pageopacity="0.0" inkscape:pageshadow="2" inkscape:window-height="706" inkscape:window-maximized="1" inkscape:window-width="1366" inkscape:window-x="-8" inkscape:window-y="-8" inkscape:zoom="0.52906977" pagecolor="#ffffff" showgrid="false">
	</sodipodi:namedview>
<g id="layer1" transform="translate(0,-450.36218)" inkscape:groupmode="layer" inkscape:label="Calque 1">
	
		<linearGradient id="rect2996_1_" gradientUnits="userSpaceOnUse" x1="347.7021" y1="806.6508" x2="348.0156" y2="489.8308" gradientTransform="matrix(1 0 0 1 -49.8599 71.417)">
		<stop  offset="0" style="stop-color:#BB5BFD"/>
		<stop  offset="1" style="stop-color:#EB82D6"/>
	</linearGradient>
	<path id="rect2996" inkscape:connector-curvature="0" fill="url(#rect2996_1_)" d="M210.89,557.362H385.11
		c40.935,0,73.891,32.955,73.891,73.89v174.219c0,40.935-32.955,73.891-73.891,73.891H210.89c-40.935,0-73.89-32.955-73.89-73.891
		V631.252C137,590.317,169.955,557.362,210.89,557.362L210.89,557.362z"/>
	<path id="path3035" inkscape:connector-curvature="0" fill="#FFFFFF" d="M297.712,576.822c-76.4,0-138.33,61.931-138.33,138.33
		c0,76.4,61.93,138.331,138.33,138.331s138.331-61.931,138.331-138.331C436.042,638.753,374.112,576.822,297.712,576.822
		L297.712,576.822z M297.712,592.09c67.958,0,123.063,55.105,123.063,123.063c0,67.957-55.104,123.063-123.063,123.063
		c-67.958,0-122.948-55.107-122.948-123.064S229.754,592.09,297.712,592.09L297.712,592.09z"/>
	<g id="g3044" transform="matrix(6.6666667,0,0,6.6666667,-5.6668055,-5957.7192)">
		<path id="path3036" inkscape:connector-curvature="0" sodipodi:nodetypes="ccccccssssccccssssccccc" fill="#FFFFFF" d="
			M54.153,987.09l-14.389,3.891h-0.017v5.853h0.017v10.465c-0.629-0.379-1.401-0.604-2.23-0.604c-2.136,0-3.857,1.483-3.857,3.304
			c0,1.821,1.722,3.287,3.857,3.287c2.135,0,3.95-1.468,3.874-3.287l-0.039-0.934l-0.095-12.651l11.37-3.069v11.555
			c-0.664-0.458-1.511-0.738-2.432-0.738c-2.136,0-3.858,1.483-3.858,3.304c0,1.821,1.722,3.287,3.858,3.287
			c2.136,0,3.931-1.466,3.931-3.287c0-0.017,0.001-0.033,0-0.051l0.01-14.473v-5.182L54.153,987.09L54.153,987.09z"/>
	</g>
</g>
</svg>
