<?xml version="1.0" encoding="utf-8"?>
<!-- Generator: Adobe Illustrator 23.0.0, SVG Export Plug-In . SVG Version: 6.00 Build 0)  -->
<svg version="1.1" id="Layer_1" xmlns="http://www.w3.org/2000/svg" xmlns:xlink="http://www.w3.org/1999/xlink" x="0px" y="0px"
	 viewBox="0 0 860.368 815.953" enable-background="new 0 0 860.368 815.953" xml:space="preserve">
<path fill="#111111" d="M518.508,593.752c-24.535,23.717-54.796,41.71-87.505,53.164c-32.716-10.636-62.158-29.447-86.693-53.164
	H518.508z"/>
<path fill="#111111" d="M267.434,246.987c-34.353-28.623-75.244-50.702-120.222-62.97v269.884v10.637
	c0,157.025,126.765,282.97,284.608,282.97s284.608-125.946,284.608-282.97v-13.905V184.016
	c-44.984,12.268-85.875,33.528-120.222,62.97c-46.621-32.71-102.235-52.34-163.568-52.34
	C370.482,195.466,313.231,214.276,267.434,246.987z M268.253,165.205c48.252-25.354,103.866-39.259,163.568-39.259
	c58.883,0,114.497,14.724,162.749,39.259c11.449-7.361,23.716-13.905,35.166-19.629c-52.34-48.252-121.858-77.694-197.915-77.694
	c-76.881,0-146.394,29.442-198.74,77.694C243.717,151.301,256.804,158.662,268.253,165.205z M164.387,119.403
	C229.813,46.616,324.68,0,431.002,0c106.316,0,201.19,45.803,266.616,119.403c27.804-7.356,57.246-12.267,86.693-12.267v120.227
	c45.797,28.623,76.057,79.331,76.057,137.396s-30.26,108.772-76.875,137.395l-0.819,3.275
	c-18.811,176.655-170.929,311.594-354.127,311.594c-183.197,0-333.679-137.395-352.49-314.868C30.26,473.531,0,422.009,0,364.758
	c0-58.064,30.26-108.772,76.057-137.396V107.136C107.135,107.954,136.577,112.047,164.387,119.403z"/>
<g>
	<path fill="#111111" d="M519.326,464.537c47.434-5.725,126.765-4.912,126.765-4.912c-1.631,13.905,0,56.433-45.796,81.787
		c-7.362,4.906-26.173,10.631-44.165,11.449c-44.16,1.637-106.316,2.456-106.316,2.456
		C461.262,506.246,480.073,469.443,519.326,464.537z"/>
	<path fill="#111111" d="M342.673,464.537c39.259,4.906,58.07,41.709,68.7,90.78c0,0-62.157-0.819-106.316-2.456
		c-17.992-0.819-36.803-7.362-44.165-11.449c-45.802-26.172-44.165-67.881-45.802-81.787
		C215.089,459.626,295.239,459.626,342.673,464.537z"/>
</g>
<path fill="#111111" d="M514.42,689.444c-23.716,14.718-52.34,22.898-83.418,22.898c-31.078,0-59.702-8.181-83.419-22.898
	c0,0,1.632-9.817,6.543-16.361c5.725-8.993,10.631-11.449,10.631-11.449c20.443,5.725,42.528,8.999,66.245,8.999
	c22.898,0,45.796-3.275,66.245-8.999c0,0,6.543,3.275,12.267,12.268C513.602,682.901,514.42,689.444,514.42,689.444z"/>
</svg>
