<?xml version="1.0" encoding="utf-8"?>
<!-- Generator: Adobe Illustrator 23.0.0, SVG Export Plug-In . SVG Version: 6.00 Build 0)  -->
<svg version="1.1" id="katman_1" xmlns="http://www.w3.org/2000/svg" xmlns:xlink="http://www.w3.org/1999/xlink" x="0px" y="0px"
	 viewBox="0 0 1232.748 1230.907" enable-background="new 0 0 1232.748 1230.907" xml:space="preserve">
<g>
	<linearGradient id="SVGID_1_" gradientUnits="userSpaceOnUse" x1="616.2792" y1="1231.8242" x2="616.2792" y2="-1.1141">
		<stop  offset="0" style="stop-color:#2255FF"/>
		<stop  offset="1" style="stop-color:#00AAFF"/>
	</linearGradient>
	<path fill="url(#SVGID_1_)" d="M616.304-1.114C275.854-1.114-0.19,274.849-0.19,615.349c0,340.412,276.044,616.475,616.494,616.475
		c340.446,0,616.445-276.063,616.445-616.475C1232.748,274.849,956.75-1.114,616.304-1.114z"/>
	<path fill="#FFFFFF" d="M507.658,857.224c-65.748,0-131.401-21.778-181.805-65.413c-61.984-53.618-98.745-126.59-103.595-205.493
		c-4.589-76.535,21.377-150.361,73.291-207.72c58.276-64.452,162.82-164.651,167.228-168.891
		c28.34-27.185,73.249-26.1,100.383,2.286c27.077,28.426,26.115,73.454-2.24,100.597c-1.072,1.021-105.258,100.901-160.169,161.567
		c-25.949,28.798-39.028,65.538-36.719,103.503c2.484,40.306,21.869,78.105,54.646,106.489
		c43.125,37.36,128.174,45.524,181.394-2.188c31.652-28.493,70.09-70.302,70.475-70.713c26.529-28.95,71.491-30.808,100.326-4.184
		c28.864,26.554,30.785,71.621,4.232,100.543c-1.758,1.844-43.451,47.173-80.269,80.279
		C643.538,834.028,575.55,857.224,507.658,857.224z M937.058,852.158c-58.329,64.396-162.859,164.581-167.296,168.889
		c-13.724,13.106-31.393,19.672-49.002,19.672c-18.78,0-37.408-7.392-51.352-21.984c-27.133-28.454-26.103-73.425,2.24-100.6
		c1.03-1.032,105.298-100.927,160.166-161.635c25.952-28.685,39.004-65.509,36.694-103.515
		c-2.459-40.266-21.841-78.066-54.66-106.421c-43.069-37.278-128.146-45.567-181.341,2.244
		c-31.691,28.398-70.09,70.231-70.447,70.657c-26.635,28.894-71.491,30.78-100.38,4.24c-28.835-26.582-30.802-71.621-4.231-100.543
		c1.772-1.942,43.409-47.3,80.269-80.364c101.041-90.783,266.567-92.587,368.981-3.938
		c62.012,53.632,98.776,126.657,103.584,205.507C1014.967,720.931,988.891,794.771,937.058,852.158z"/>
</g>
</svg>
