<?xml version="1.0" encoding="utf-8"?>
<!-- Generator: Adobe Illustrator 23.0.0, SVG Export Plug-In . SVG Version: 6.00 Build 0)  -->
<svg version="1.1" id="Layer_1" xmlns="http://www.w3.org/2000/svg" xmlns:xlink="http://www.w3.org/1999/xlink" x="0px" y="0px"
	 viewBox="0 0 1481.972 1483.324" enable-background="new 0 0 1481.972 1483.324" xml:space="preserve">
<g>
	<g>
		
			<ellipse transform="matrix(0.7071 -0.7071 0.7071 0.7071 -307.8833 741.382)" fill-rule="evenodd" clip-rule="evenodd" fill="#79B542" cx="740.986" cy="742.339" rx="740.985" ry="740.985"/>
		
			<ellipse transform="matrix(0.7071 -0.7071 0.7071 0.7071 -304.113 739.8203)" fill-rule="evenodd" clip-rule="evenodd" fill="#7AB642" cx="740.986" cy="737.007" rx="728.435" ry="728.436"/>
		<circle fill-rule="evenodd" clip-rule="evenodd" fill="#7BB642" cx="740.986" cy="731.676" r="715.886"/>
		
			<ellipse transform="matrix(0.7071 -0.7071 0.7071 0.7071 -296.5729 736.6973)" fill-rule="evenodd" clip-rule="evenodd" fill="#7CB742" cx="740.986" cy="726.344" rx="703.336" ry="703.336"/>
		
			<ellipse transform="matrix(0.7071 -0.7071 0.7071 0.7071 -292.8027 735.1354)" fill-rule="evenodd" clip-rule="evenodd" fill="#7DB842" cx="740.986" cy="721.012" rx="690.787" ry="690.787"/>
		<circle fill-rule="evenodd" clip-rule="evenodd" fill="#7EB842" cx="740.986" cy="715.681" r="678.237"/>
		
			<ellipse transform="matrix(0.7071 -0.7071 0.7071 0.7071 -285.2626 732.0125)" fill-rule="evenodd" clip-rule="evenodd" fill="#7FB942" cx="740.986" cy="710.349" rx="665.688" ry="665.688"/>
		<circle fill-rule="evenodd" clip-rule="evenodd" fill="#80BA41" cx="740.986" cy="705.017" r="653.138"/>
		
			<ellipse transform="matrix(0.7071 -0.7071 0.7071 0.7071 -277.7223 728.8887)" fill-rule="evenodd" clip-rule="evenodd" fill="#81BA41" cx="740.985" cy="699.685" rx="640.589" ry="640.589"/>
		<circle fill-rule="evenodd" clip-rule="evenodd" fill="#82BB41" cx="740.986" cy="694.353" r="628.039"/>
		
			<ellipse transform="matrix(0.7071 -0.7071 0.7071 0.7071 -270.1824 725.766)" fill-rule="evenodd" clip-rule="evenodd" fill="#83BC41" cx="740.986" cy="689.022" rx="615.489" ry="615.489"/>
		
			<ellipse transform="matrix(0.7071 -0.7071 0.7071 0.7071 -266.4123 724.2042)" fill-rule="evenodd" clip-rule="evenodd" fill="#84BC41" cx="740.986" cy="683.69" rx="602.94" ry="602.94"/>
		
			<ellipse transform="matrix(0.7071 -0.7071 0.7071 0.7071 -262.6419 722.6424)" fill-rule="evenodd" clip-rule="evenodd" fill="#85BD41" cx="740.986" cy="678.358" rx="590.39" ry="590.39"/>
		
			<ellipse transform="matrix(0.7071 -0.7071 0.7071 0.7071 -258.872 721.0809)" fill-rule="evenodd" clip-rule="evenodd" fill="#86BE41" cx="740.986" cy="673.027" rx="577.841" ry="577.841"/>
		<circle fill-rule="evenodd" clip-rule="evenodd" fill="#87BE41" cx="740.986" cy="667.695" r="565.291"/>
		
			<ellipse transform="matrix(0.7071 -0.7071 0.7071 0.7071 -251.3317 717.9576)" fill-rule="evenodd" clip-rule="evenodd" fill="#88BF41" cx="740.986" cy="662.363" rx="552.741" ry="552.741"/>
		
			<ellipse transform="matrix(0.7071 -0.7071 0.7071 0.7071 -247.5614 716.3957)" fill-rule="evenodd" clip-rule="evenodd" fill="#89C041" cx="740.985" cy="657.031" rx="540.192" ry="540.192"/>
		
			<ellipse transform="matrix(0.7071 -0.7071 0.7071 0.7071 -243.7911 714.8344)" fill-rule="evenodd" clip-rule="evenodd" fill="#8AC041" cx="740.986" cy="651.699" rx="527.642" ry="527.642"/>
		<circle fill-rule="evenodd" clip-rule="evenodd" fill="#8BC141" cx="740.986" cy="646.368" r="515.093"/>
		<circle fill-rule="evenodd" clip-rule="evenodd" fill="#8CC241" cx="740.986" cy="641.036" r="502.543"/>
		<circle fill-rule="evenodd" clip-rule="evenodd" fill="#8DC241" cx="740.986" cy="635.704" r="489.993"/>
		
			<ellipse transform="matrix(0.7071 -0.7071 0.7071 0.7071 -228.7111 708.5878)" fill-rule="evenodd" clip-rule="evenodd" fill="#8DC340" cx="740.986" cy="630.373" rx="477.444" ry="477.444"/>
		<circle fill-rule="evenodd" clip-rule="evenodd" fill="#8EC340" cx="740.986" cy="625.041" r="464.895"/>
		
			<ellipse transform="matrix(0.7071 -0.7071 0.7071 0.7071 -221.1708 705.4645)" fill-rule="evenodd" clip-rule="evenodd" fill="#8FC440" cx="740.986" cy="619.709" rx="452.345" ry="452.345"/>
		<circle fill-rule="evenodd" clip-rule="evenodd" fill="#90C540" cx="740.986" cy="614.377" r="439.795"/>
		
			<ellipse transform="matrix(0.7071 -0.7071 0.7071 0.7071 -213.6304 702.3414)" fill-rule="evenodd" clip-rule="evenodd" fill="#91C540" cx="740.986" cy="609.045" rx="427.245" ry="427.246"/>
		
			<ellipse transform="matrix(0.7071 -0.7071 0.7071 0.7071 -209.8606 700.7797)" fill-rule="evenodd" clip-rule="evenodd" fill="#92C640" cx="740.986" cy="603.714" rx="414.696" ry="414.696"/>
		<circle fill-rule="evenodd" clip-rule="evenodd" fill="#93C740" cx="740.986" cy="598.382" r="402.147"/>
		
			<ellipse transform="matrix(0.7071 -0.7071 0.7071 0.7071 -202.3203 697.6564)" fill-rule="evenodd" clip-rule="evenodd" fill="#94C740" cx="740.986" cy="593.05" rx="389.597" ry="389.597"/>
		
			<ellipse transform="matrix(0.7071 -0.7071 0.7071 0.7071 -198.5503 696.0948)" fill-rule="evenodd" clip-rule="evenodd" fill="#95C840" cx="740.986" cy="587.719" rx="377.048" ry="377.048"/>
		
			<ellipse transform="matrix(0.7071 -0.7071 0.7071 0.7071 -194.7798 694.5333)" fill-rule="evenodd" clip-rule="evenodd" fill="#96C940" cx="740.986" cy="582.387" rx="364.498" ry="364.498"/>
		
			<ellipse transform="matrix(0.7071 -0.7071 0.7071 0.7071 -191.0101 692.9716)" fill-rule="evenodd" clip-rule="evenodd" fill="#97C940" cx="740.986" cy="577.055" rx="351.948" ry="351.949"/>
		<circle fill-rule="evenodd" clip-rule="evenodd" fill="#98CA40" cx="740.986" cy="571.723" r="339.399"/>
		
			<ellipse transform="matrix(0.7071 -0.7071 0.7071 0.7071 -183.4699 689.8485)" fill-rule="evenodd" clip-rule="evenodd" fill="#99CB40" cx="740.986" cy="566.392" rx="326.849" ry="326.849"/>
		
			<ellipse transform="matrix(0.7071 -0.7071 0.7071 0.7071 -179.6998 688.2867)" fill-rule="evenodd" clip-rule="evenodd" fill="#9ACB40" cx="740.986" cy="561.06" rx="314.3" ry="314.3"/>
		
			<ellipse transform="matrix(0.7071 -0.7071 0.7071 0.7071 -175.9294 686.7252)" fill-rule="evenodd" clip-rule="evenodd" fill="#9BCC3F" cx="740.986" cy="555.728" rx="301.75" ry="301.75"/>
		<circle fill-rule="evenodd" clip-rule="evenodd" fill="#9CCD3F" cx="740.986" cy="550.397" r="289.201"/>
		<circle fill-rule="evenodd" clip-rule="evenodd" fill="#9DCD3F" cx="740.986" cy="545.065" r="276.651"/>
		
			<ellipse transform="matrix(0.7071 -0.7071 0.7071 0.7071 -164.6192 682.0403)" fill-rule="evenodd" clip-rule="evenodd" fill="#9ECE3F" cx="740.986" cy="539.733" rx="264.101" ry="264.101"/>
		
			<ellipse transform="matrix(0.7071 -0.7071 0.7071 0.7071 -160.8492 680.4785)" fill-rule="evenodd" clip-rule="evenodd" fill="#9FCF3F" cx="740.986" cy="534.401" rx="251.552" ry="251.552"/>
		<circle fill-rule="evenodd" clip-rule="evenodd" fill="#A0CF3F" cx="740.986" cy="529.07" r="239.002"/>
		
			<ellipse transform="matrix(0.7071 -0.7071 0.7071 0.7071 -153.3089 677.3554)" fill-rule="evenodd" clip-rule="evenodd" fill="#A1D03F" cx="740.986" cy="523.738" rx="226.453" ry="226.453"/>
	</g>
	<g>
		<g>
			<path fill-rule="evenodd" clip-rule="evenodd" fill="#7BA43E" d="M1282.511,593.109c-0.217,53.651-56.473,86.506-103.589,59.848
				c-31.956-18.081-64.662-34.467-98.734-48.127c-67.69-27.137-137.842-45.399-209.545-58.048
				c-49.91-8.804-100.196-14.633-150.758-17.67c-52.57-3.157-105.177-3.529-157.826-0.804
				c-60.323,3.122-120.173,9.746-179.23,22.503c-21.793,4.707-43.331,10.642-64.883,16.4c-13.217,3.532-26.241,3.982-39.406,0.131
				c-28.814-8.431-48.677-34.247-49.531-64.478c-0.829-29.365,17.287-56.664,45.754-66.047c20.841-6.87,42.229-12.269,63.628-17.216
				c52.976-12.246,106.691-19.814,160.839-24.758c57.49-5.248,115.087-6.938,172.723-5.288
				c141.994,4.065,281.226,24.829,415.971,71.348c54.938,18.967,107.816,42.509,158.074,71.833
				c17.918,10.455,29.946,25.188,34.524,45.567C1281.607,583.144,1281.869,588.17,1282.511,593.109z"/>
			<path fill-rule="evenodd" clip-rule="evenodd" fill="#7BA43E" d="M611.764,758.606c-84.635,0.354-171.332,10.846-256.014,35.977
				c-13.799,4.095-27.646,4.37-41.166-1.107c-22.002-8.913-36.317-30.962-35.541-54.292c0.809-24.337,15.648-45.532,39.11-52.695
				c23.874-7.289,48.107-13.609,72.478-19.021c59.996-13.324,120.802-20.371,182.243-22.703
				c132.181-5.017,261.305,12.082,387.275,52.457c63.697,20.415,124.63,47.145,182.185,81.375c2.864,1.703,5.707,3.443,8.551,5.181
				c30.012,18.338,33.596,55.256,19.28,78.778c-16.368,26.898-50.402,35.262-78.694,19.306
				c-15.961-9.002-31.735-18.386-48.05-26.702c-74.794-38.123-154.097-62.836-236.387-78.412
				C743.676,764.755,679.724,758.893,611.764,758.606z"/>
			<path fill-rule="evenodd" clip-rule="evenodd" fill="#7BA43E" d="M624.996,884.126c97.426,1.026,192.732,14.194,285.227,45.388
				c51.02,17.205,99.74,39.465,146.012,67.029c4.005,2.385,8.072,4.737,11.773,7.549c18.671,14.183,23.52,39.847,11.504,60.059
				c-11.655,19.604-36.384,27.486-57.527,18.151c-4.247-1.875-8.224-4.393-12.233-6.77c-78.418-46.486-163.04-75.276-252.99-89.051
				c-55.195-8.452-110.7-11.384-166.433-9.193c-72.096,2.835-143.286,12.837-213.719,28.431c-7.114,1.575-14.434,3.006-21.673,3.084
				c-21.807,0.236-40.216-15.231-44.044-36.203c-4.053-22.207,6.948-43.022,27.316-51.209c4.299-1.728,8.888-2.834,13.427-3.853
				c57.612-12.934,115.765-22.715,174.604-27.692C559.085,887.066,592.073,885.976,624.996,884.126z"/>
		</g>
	</g>
	<g>
		<path fill-rule="evenodd" clip-rule="evenodd" d="M1282.511,597.113c-0.217,53.651-56.473,86.506-103.589,59.848
			c-31.956-18.081-64.662-34.467-98.734-48.127c-67.69-27.137-137.842-45.399-209.545-58.048
			c-49.91-8.804-100.196-14.633-150.758-17.67c-52.57-3.157-105.177-3.529-157.826-0.804c-60.323,3.122-120.173,9.746-179.23,22.503
			c-21.793,4.707-43.331,10.642-64.883,16.4c-13.217,3.532-26.241,3.982-39.406,0.131c-28.814-8.431-48.677-34.247-49.531-64.478
			c-0.829-29.365,17.287-56.664,45.754-66.047c20.841-6.87,42.229-12.269,63.628-17.216
			c52.976-12.246,106.691-19.814,160.839-24.758c57.49-5.248,115.087-6.938,172.723-5.288
			c141.994,4.065,281.226,24.829,415.971,71.348c54.938,18.967,107.816,42.509,158.074,71.833
			c17.918,10.455,29.946,25.188,34.524,45.567C1281.607,587.148,1281.869,592.174,1282.511,597.113z"/>
		<path fill-rule="evenodd" clip-rule="evenodd" d="M611.764,762.61c-84.635,0.354-171.332,10.846-256.014,35.977
			c-13.799,4.095-27.646,4.37-41.166-1.106c-22.002-8.913-36.317-30.962-35.541-54.292c0.809-24.337,15.648-45.532,39.11-52.695
			c23.874-7.289,48.107-13.609,72.478-19.021c59.996-13.324,120.802-20.371,182.243-22.703
			c132.181-5.017,261.305,12.082,387.275,52.457c63.697,20.415,124.63,47.145,182.185,81.375c2.864,1.703,5.707,3.443,8.551,5.181
			c30.012,18.338,33.596,55.256,19.28,78.778c-16.368,26.897-50.402,35.262-78.694,19.306c-15.961-9.002-31.735-18.386-48.05-26.702
			c-74.794-38.123-154.097-62.836-236.387-78.412C743.676,768.759,679.724,762.897,611.764,762.61z"/>
		<path fill-rule="evenodd" clip-rule="evenodd" d="M624.996,888.13c97.426,1.026,192.732,14.194,285.227,45.388
			c51.02,17.205,99.74,39.465,146.012,67.029c4.005,2.385,8.072,4.737,11.773,7.549c18.671,14.183,23.52,39.847,11.504,60.059
			c-11.655,19.605-36.384,27.486-57.527,18.151c-4.247-1.875-8.224-4.393-12.233-6.77c-78.418-46.486-163.04-75.276-252.99-89.051
			c-55.195-8.452-110.7-11.384-166.433-9.193c-72.096,2.835-143.286,12.837-213.719,28.431c-7.114,1.575-14.434,3.006-21.673,3.084
			c-21.807,0.236-40.216-15.231-44.044-36.203c-4.053-22.207,6.948-43.022,27.316-51.209c4.299-1.728,8.888-2.834,13.427-3.853
			c57.612-12.934,115.765-22.715,174.604-27.692C559.085,891.07,592.073,889.98,624.996,888.13z"/>
	</g>
</g>
</svg>
